<svg xmlns="http://www.w3.org/2000/svg" width="140" height="70" fill="none" viewBox="0 0 140 70"><defs><clipPath id="a"><path fill="#fff" fill-opacity="0" d="M0 0h140v70H0z"/></clipPath></defs><path fill="none" d="M0 0h140v70H0z"/><g clip-path="url(#a)"><path fill="#81B3D3" d="M140 0H0l60.3623 65.7c5.2754 5.8 14 5.8 19.2754 0L140 0Z"/><path fill="#23A9E1" d="m37.2319.5 32.5655 37.9L102.261.700012 37.2319.5Z"/><path fill="#FFF" d="M61.9858 14.7h17.5508c-1.3188-.8-4.4638-4.6-6.0869-3.1999-.1016.0999-4.9712-5.70005-8.1162-2.90006C62.5947 11.1 61.2759 8.30005 58.2324 10.2c-3.6523 2.4 2.0288 3.7 3.7534 4.5Zm27.087-3.5-9.9419.1c3.9565-4.49995 5.6811-3.99995 9.9419-.1Z"/><path fill="#491213" d="M99.0142 3.59998V1.20001h2.1308l-2.1308 2.39997ZM49.1011 13c.1015.1 2.435-2.4 6.1885-4.90002 3.4492-2.29999 8.7246-4.89997 14.6088-4.89997 5.8838 0 11.2608 2.70001 14.71 5C88.3623 10.6 90.6953 13 90.7969 13.1l-2.5362 3c-4.5654.6-7.8115 3.9-12.2753 3.2-2.232-.4-2.3335-1.6-2.9419-2.9-.5074-1-1.3189-.8-2.3335-1.2-.9131-.4-1.522-1.1-3.4493-.7-1.6235.4-1.8261 2.9-3.9565 2.8-1.1162-.1-1.2173-1.6-2.8408-3.6-4.1592-4.90001-7.9531-4.28954-10.5908.2105L49.1011 13ZM40.5796 1.20001v1.89997l-1.6235-1.89997h1.6235Zm54.6811 0h3.2461v3L95.2607 8V1.20001ZM91.1011 12.6V1.20001h3.5508v7.39997L91.1011 12.6Zm-.5073-10.39999V12.1C89.478 11 88.2607 10 86.9419 9.09998l3.6519-6.89997Zm-4.1592-.29999v6.79999c-.5074-.29999-.9131-.70001-1.522-1-.71-.40002-1.4199-.90002-2.2319-1.29999l3.7539-4.5Zm-4.4639-.20001V6c-1.0146-.5-2.1304-1-3.145-1.5l3.145-2.79999Zm.6089-.5h3.7534l-3.7534 4.59998V1.20001Zm4.3623 0h3.6519l-3.6519 7.09998V1.20001Zm-8.9277 0h3.9565l-3.5508 3.09998c-.1015 0-.2026-.09998-.3042-.09998l-.1015-3Zm-.5074.39997V4c-1.0141-.40002-2.0288-.70001-3.1445-.90002l3.1445-1.5Zm-4.2607 0v1.30004c-.71-.10003-1.4204-.20001-2.2319-.30004l2.2319-1Zm-6.8984 0 2.2319 1c-.8115 0-1.522.10003-2.2319.30004V1.59998Zm-4.1597 0 3.145 1.5c-1.1157.20001-2.1304.5-3.145.90002V1.59998Zm3.6523 1.20001-3.3476-1.59998h3.3476v1.59998Zm3.5508-.39997-2.8408-1.30004h2.8408v1.30004Zm.71-1.20001h2.9424L70.1011 2.5V1.20001Zm3.7539 0h3.2461L73.855 2.79999V1.20001ZM61.2749 4.29999l-3.5503-3.09998h3.9561v3l-.4058.09998ZM57.623 1.70001l3.1451 2.70001c-1.1162.39997-2.1309.89997-3.1451 1.5V1.70001Zm-4.3623.20001 3.6519 4.5c-1.3188.69996-2.5361 1.5-3.6519 2.39997V1.90002Zm-4.2612.29999 3.6524 7C51.333 10.2 50.1157 11.2 48.9995 12.4V2.20001Zm3.7539 6-3.6523-7.10003h3.6523v7.10003Zm4.3623-2.5-3.7534-4.60003h3.7534v4.60003ZM44.333 7.5l-3.2461-3.79999v-2.5h3.2461V7.5Zm.6089-6.29999h3.5508V12.4l-3.5508-4.19999v-7ZM36.5215 0v14.6l33.478 39.9L103.478 15V0H36.5215Z"/><path fill="#23A9E1" d="M67.3623 46 70 41.8l2.6377 4.2L70 50.2 67.3623 46Z"/><path fill="#DC6243" d="M75.2754 30.6c-3.4492-2-2.6377-3.5.2031-4.9 1.5215-.7001 4.8696-3.4 6.1885-2.5l-6.3916 7.4Zm-2.333 2.5c-2.0293-.1001-4.3623-.4-6.3916.1 1.2173.2999 4.2607 1.2 1.4204 1.9 1.0146 1.3999 2.6377 1.3 3.6523.1-.4057-.2001-.7104-.5-1.0146-.7001C71.7246 34.2 72.7393 33.6 72.9424 33.1Zm1.2173-1.6001c-.9131-.7999-1.9278-.7999-2.7393 0-1.2173-2.0999-5.478-1.3999-7.5073-1.7 1.1162 2.6001 9.7392 3.1001 10.2466 1.7Zm-6.8985-2.2c-1.6235-.5-6.8989-.3999-3.4497-1.8 1.1162-.3999 6.7974.1001 3.4497 1.8Zm2.0288-3C68.7827 25.2 69.6958 23.9 71.0146 24.9c1.2173.8-.6088 2-1.7246 1.3999Zm-2.9419.1001c-2.3335.7-5.3769-.8-1.6235-1.5 2.3335-.5 4.7686.5 1.6235 1.5Zm-2.6377-6.2c-.5073 1.6-1.5219 1.9-1.4204 0 .1016-2.3 1.6231-1.7001 3.2466-2.6 1.3189-.7 2.0288-3.4 4.3623-1.8001 1.0142.7 2.2315.1001 2.5362 1.2 0-.0999-2.9419 6.7001-1.3189 6.7001-3.2466 0-1.8262-3.8-.6089-6.4001-1.2173.6001-3.145 4.3001-1.5215 5-.8115 1.1001-3.4492 2.6001-4.768 1.5-1.1162-1-.5074-2.3-.5074-3.5999Zm-4.0581 2.7999c-5.6811 0-1.8261-8.5999.1016-8.0999 2.2319.7 1.9273 8.2-.1016 8.0999Zm-6.29-8.2C50.7246 14.7 51.8408 12.2 53.667 11.7c1.7246-.5 5.2754 1.0999 6.4927 2.2-1.8262.5999-4.1597.5-6.1885.5999-.2031-2-.71-1.2999-.6089.3Z"/><path fill="#F49774" d="M72.8408 25.8c-2.9419-3 4.3623-2.7 5.5796-3.8.8115.3 7.1016-5.4 8.6231-5-1.1158 1.3-3.4493 5.3-5.0723 5.3-1.3189 0-2.6377-.2-3.6524.7-1.5214 1.4-3.9565 2.1-5.478 2.8Z"/><path fill="#F4B1A4" d="M73.7534 22.2c-1.623.9-3.145-2.5-.3042-2.2 1.8262.2 3.7534-.2 5.478.1-1.3188 1.5-3.145 2.3-5.1738 2.1Z"/><path fill="#FFF" d="M51.8408 20.9c.3042.4.6084.8.5069 1.4 0 .4-.6084 1-.2027 1.1999L53.6665 21.7c-.4058-.1-3.5503-3.8-3.5503-4.2001L47.9854 18.6c.1015.3999.812 0 1.2177 0 .5069 0 .9131.3999 1.3189.7-1.1162.9-3.8555 3.3-4.1597 3.3-.1016 0-.71-.4-.71 0 0 .2.6084.7.71.8l1.4204 1.7c.4058-.2-.1015-.5.1016-.8.1011-.2 3.2461-2.7 3.9565-3.4Zm-3.4497-4.5c.3047-.1.4063.3.6089 0l-1.623-1.9001c-.2032-.2999-.5074-.5999-.5074 0 .1016.4001-4.0581 3.7001-4.2607 3.8001-.3047.1-.5073-.3001-.7105.1.5074.5999.9131 1.0999 1.4204 1.7.2032.2.3042.3999.5074.6.2026.2.1015-.4.1015-.4-.1015-.3001.3042-.6.6084-.8001 1.0147-1 3.5508-3.0999 3.855-3.0999Zm-5.7822-.6c-1.1162.3-2.4351-.1-2.7393-1.3001-.4057-1.1999.4058-2.3999 1.3189-3.0999.9131-.7 2.3335-.6 2.8403.5.2031.5.1016 1.0999-.1011 1.5999-.1015.3001-.4057.6001 0 .8001.6084-.7 1.1158-1.4 1.7246-2.1-.7104-.4-1.0146-1.1-1.5219-1.7001-.6084-.69991-1.3189-1.39992-2.333-1.49996C39.8696 8.69995 38.145 10.7 37.9419 12.4c-.1011.9.2031 1.8.812 2.5999.5068.6001 1.2173 1.1001 1.6231 1.8001.2026.1 1.8261-.7 2.1303-.8001.2027 0 .1016-.0999.1016-.1999Zm25.8696 23.6c-.7104-.5-2.6377-3-3.0434-3.5l-.2032-.3-.2031.1c-.1011.1.1016.4 0 .6-.5068.8-3.7534 3.1999-3.9565 3.4-.4058.2-.8116-.1-1.0142.2.5073.5999 1.8262 2.3 2.0288 2.3.3042 0 .1016-.5.1016-.6.1015-.2 1.7246-1.6001 2.3335-2.1001.2026-.1999.4057.3001.6084.5.2031.3001.3047.7001.2031 1-.1016.2001-.5073.6001-.2031.8001.4057-.5 1.5219-1.8001 1.7246-2 .2031-.2-.4058 0-.3042-.1-.2031.1-.5073.2-.71 0-.1015 0-.7104-.7001-.6089-.8.3042-.2.6089-.6 1.0147-.7.6084-.1 1.0141 1 1.1157 1.4.1016.3999.1016.8-.1016 1.1-.101.2999-.3042.5 0 .6l1.4205-1.9c0 .0999-.1016.0999-.2027 0Zm-9.3335-8.9001c-.7099 0-1.4204.3001-2.0288.8001-1.4204 1.1999-1.6235 3.3-.5073 4.8 1.3188 1.7 3.4492 1.8999 5.1738.7 1.4204-1.2 1.6231-3.3001.5073-4.8001-.8115-1-2.0293-1.5-3.145-1.5ZM60.3623 31.9c.9131-.1 1.522.8 1.1162 1.8-.4062 1-1.4204 2-2.435 2.4-1.2173.5-2.0289-.5-1.5215-1.7.4057-1 1.4199-2 2.4345-2.4001.1016 0 .2032-.0999.4058-.0999Zm-2.8403-4.6c.3042 0 .6084.4.8115 0l-1.4204-1.7c-.4058.2 0 .3999-.1016.6-.2026.2999-1.7246.5-2.1303.6.1015-.4.6088-1.7.8115-1.8001.4057-.2999.6089.3001.8115-.0999l-1.8257-2.1c-.2031-.2-.4062-.7-.6089-.4 0 0 0 1-.1015 1.0999-.1016.2001-.6084 2.4001-1.2173 2.9001-.3042.3-1.522 1.3-1.8262 1.4-.3042.1-.5073-.4-.8115 0l1.623 1.9c.1016.1.4058.6.5074.6.3042.1 0-.6.1015-.7.1016-.3 1.6231-1.8 2.3335-1.9.9126-.2001 2.0288-.5 3.0435-.4Zm24.5508 6.6999c.101.4001.2026.9001.101 1.3001-.101.6-.6084 1.9-1.4199 1.5-.812-.4-1.4204-1.1-2.1309-1.7.5074-.6001 1.0147-1.1001 1.9278-.8.2031.1.4057 0 .2031-.2-.3047-.2-2.0293-1.3-2.1309-1.2-.2026.2.3047.5999.1016 1-.1016.3-.4058.5-.6084.8-.5073-.4-1.2178-.8-.7104-1.5.4057-.4.8115-.8 1.4204-.9.4057-.1 1.2173.3 1.3188-.1-.7099-.3-1.4204-.7001-2.1304-1 .1016.5-2.2319 2.9-2.7392 3.5-.1016.1-.4058.4-.4058.5 0 .2999.4058.1.4058.1.3042-.1 4.4639 3.3 4.5654 3.6.1011.2-.1015.4 0 .5 0 0 .1011.0999.2027.0999.3042-.2999 2.9419-3.8999 3.5507-4C83.0869 34.7 82.5796 33.9 82.0728 33.1c-.4063.2-.1016.7 0 .8999ZM78.0146 38.4c-1.3188-.9001-3.6523.8-4.0581 1-.7099.3-1.2172-.4001-.8115-1 .3042-.5.9131-.8 1.5215-.8.2031 0 .9131.1.9131 0 .1016-.1001.1016-.1001 0-.2-.6084-.4001-1.1157-.8-1.7246-1.1-.1011.6999-.9131 1.1-1.3189 1.6-.5073.5999-1.0141 1.3-1.0141 2s.4057 1.4 1.1157 1.7c.71.3999 1.522.1 2.2319-.3.4058-.3001.8116-.6 1.2173-.8001.6089-.2999 1.522 0 1.3189.8001-.2027.6999-.9131 1.3-1.6231 1.5-.4057.1-.8115.1-1.2173-.1-.3047-.1-.6089-.5-.8115-.1l2.333 1.6c.1016-.5.3042-.7001.7105-1 .5068-.4.9126-.9 1.3188-1.4.8115-.9 1.1157-2.5-.1016-3.4Zm17.855-28.1-.9131 1-.8115 1c-.2031.1999-.3042.3 0 .5.5073-.3001 3.5508 4.8 3.3477 5.5-.5073.1999-4.565-3.3001-4.6665-3.5 0-.1.2026-.7-.1016-.6-.1016 0-.5073.6-.6084.7l-.6089.7c.2027.3.3042 0 .6089 0 .2026.1 1.2173.8999 1.5215 1.1-.5073 0-1.7246.1-1.9277.1-.6084.1-.3042-.4-.71-.6l-1.5215 1.7999-.9131 1V19.1c.2027.2.1011.1.4058 0 .3042-.1001 4.3623 3.2 4.4639 3.3999.2026.3001-.1016.6001.3042.8001l1.2172-1.4c.1016-.1.1016-.1 0-.1-.3042-.2-.3042.1-.7099.1-.3047-.1-2.9424-2.2-3.8555-3l5.377-.2c.2031 0 .7104.6.7104.7999-.1015.2001-.3047.4001 0 .5.3042-.3999.6084-.6999.9126-1.0999l.1016-.2c.1015 0 .1015-.1.1015-.2001l.1016-.0999c.3042-.3 1.2173-1.3 1.1157-1.4001-.3042-.2999-.4057.3001-.8115 0-.2026-.1999-.8115-1.1999-.9131-1.3999-.2026-.3.4058-.6001.6089-.7.5073-.3 2.1304-.8 2.3332.2 0 .2-.2028.3999-.1013.5 0 0 .1013.2.2023.1l2.131-2.6c-.101-.1001-.101-.1001-.203-.2-.507.5-5.5795-1.5-5.8842-1.8-.101-.2-.1015-.8-.3042-.8Zm-.2031 2.6c.812.3 1.522.5999 2.3335 1-.2026.0999-.4058.2-.6089.3-.2026.1-.4057.2999-.6084.5l-1.1162-1.8Zm-6.6953 7.7c-1.1162-.1001-2.2319.3999-3.0435 1.3-1.2177 1.5-1.1162 3.7.4058 4.9 1.5215 1.1999 3.7534.9 4.9707-.5 1.2178-1.5 1.1162-3.7-.4058-4.9-.5073-.4001-1.2172-.7-1.9272-.8Zm-1.4204 1.6c.6089 0 1.3188.4 1.7246.7.8115.5 2.2319 1.7 1.522 2.7 0-.1001.101-.1001-.1016.1-.8115.7999-2.2319.1-2.9419-.5-.7104-.5-2.0293-1.7001-1.2178-2.7001.3047-.1999.6089-.2999 1.0147-.2999Zm-3.145 4.2999c-1.2173-.0999-2.4346.5-3.3477 1.6001-.6089.8-1.3188 1.5-1.9277 2.3.2031.3.5073-.1.8115.0999.3047.2001 4.1597 3.3001 4.1597 3.5.1015.3001-.2032.4001.1015.6001.1011.1 2.9419-3.4 3.2461-4 .4058-1.1001.1016-2.4-.8115-3.2-.8115-.6-1.5215-.9001-2.2319-.9001ZM83.29 28.1h.3042c1.4204.3999 3.4493 2.1 2.1304 3.6-.2026.2 0 0-.4058.4-.2026.2-4.2607-3-4.0581-3.2.4058-.5 1.3189-.9001 2.0293-.8Z"/></g></svg>