<svg xmlns="http://www.w3.org/2000/svg" width="64" height="76" fill="none" viewBox="0 0 64 76"><path fill="#83B3D3" d="M61.1001 22.4624H36.3c13.8001-6.9048 14.9-11.3079 14.4-13.70947C49.5 4.75 45 1.74805 40.7 3.34912c-5.5999 2.10156-7.0999 10.40718-8.5999 16.41138-2-6.1043-3.8001-13.80957-8.2002-17.7124C22.6001.94751 20.8-.253418 18.1001.046875c-4 .400146-9.80005 5.403805-7.5 11.007525C12.8999 16.4583 20.3 19.8606 25.2 22.5625H2.8999C1.30005 22.5625 0 23.8635 0 25.4646v11.3079c0 1.601 1.30005 2.9021 2.8999 2.9021h.30005V76H61V39.5745h.1001C62.7 39.5745 64 38.2734 64 36.6724V25.3645c0-1.6011-1.3-2.9021-2.8999-2.9021ZM42.3999 5.85083c2.1001-.30029 5 1.30103 5.3001 3.20215.4001 2.80202-3.4 5.30372-5.0999 6.40452-2.5 1.7012-4.9001 2.6018-7.3001 4.103.9-3.7026 2.5-13.00923 7.0999-13.70967ZM19.5 15.8579c-2.2-1.5012-6.5-4.4031-6.3999-7.80541C13.2 4.44995 18.8 1.44775 21.8999 4.14966 25.8 7.552 27.6001 15.2573 29 20.7612c-3.2-1.5009-6.3-2.802-9.5-4.9033Zm6 57.1399H6.1001V39.5745H25.5v33.4233Zm0-36.5254H3V25.4646h22.5v11.0078Zm10.2 0V72.9978h-7.2V25.5647h7.2v10.9077ZM58 72.9978H38.6001V39.5745H58v33.4233Zm2.8999-36.5254H38.6001V25.4646h22.2998v11.0078Z"/></svg>