<svg xmlns="http://www.w3.org/2000/svg" width="74" height="70" fill="none" viewBox="0 0 74 70"><path fill="#83B3D3" fill-rule="evenodd" d="M5.1084 31.5h63.8645c0-.6001.1002-1.2.1002-1.8999v-1.2002C68.3713 12.7 54.3362 0 37.093 0 19.7495 0 5.71436 12.7 5.01257 28.5v1.2729c-.00024.5757-.00036 1.1514.09583 1.7271ZM37.093 3c15.6392 0 28.4713 11.3 29.0729 25.5H8.02014C8.62158 14.3999 21.4537 3 37.093 3Zm-7.8196 9.2c1.0519 0 1.9047-.8953 1.9047-2 0-1.10454-.8528-2.00005-1.9047-2.00005-1.052 0-1.9047.89551-1.9047 2.00005 0 1.1047.8527 2 1.9047 2Zm17.4438-2c0 1.1047-.8529 2-1.9048 2-1.052 0-1.9048-.8953-1.9048-2 0-1.10454.8528-2.00005 1.9048-2.00005 1.0519 0 1.9048.89551 1.9048 2.00005Zm-7.7194 5.1c0 1.1045-.8528 2-1.9048 2s-1.9048-.8955-1.9048-2c0-1.1047.8528-2 1.9048-2s1.9048.8953 1.9048 2ZM21.0527 42.5l-5.4135-4.1001L10.3259 42.5l-6.21555-4.7 1.70423-2.5 4.51132 3.4 5.3133-4.0999L21.0527 38.7l5.3134-4.0999L31.6794 38.7l5.3133-4.0999L42.4062 38.7l5.3134-4.0999L53.033 38.7l5.4135-4.0999L63.7599 38.7l4.5112-3.4 1.7044 2.5-6.2156 4.7-5.3134-4.1001L53.033 42.5l-5.3134-4.1001L42.4062 42.5l-5.4135-4.1001L31.6794 42.5l-5.3133-4.1001L21.0527 42.5Zm49.023 4.2H4.11035C1.80457 46.7 0 48.6001 0 51v3.5c0 2.3999 1.90479 4.3 4.11035 4.3h.90222v1.0999c0 5.5 4.31079 10.1001 9.62413 10.1001h44.7121c5.3133 0 9.6241-4.5 9.6241-10.1001V58.8h.9022c2.3058 0 4.1104-1.9001 4.1104-4.3V51c.2005-2.3-1.7043-4.3-3.9098-4.3Zm1.203 7.8c0 .7-.6016 1.3-1.203 1.3H4.01001c-.70166 0-1.203-.6-1.203-1.3V51c0-.7.60156-1.3 1.203-1.3H69.9755c.7017 0 1.203.6 1.203 1.3.1002 0 .1002 3.5.1002 3.5Zm-5.1128 5.3999c0 3.9001-3.0076 7-6.7169 7H14.6367c-3.7093 0-6.7169-3.1999-6.7169-7V58.8h58.2461v1.0999Z"/></svg>