<svg xmlns="http://www.w3.org/2000/svg" width="20" height="20" fill="none" viewBox="0 0 20 20"><defs><clipPath id="a"><path fill="#fff" fill-opacity="0" d="M0 0h20v20H0z"/></clipPath></defs><g clip-path="url(#a)"><path fill="#000" d="m19.5 18.0083-3.7-3.6796c1-1.2928 1.7-2.9834 1.7-4.8729 0-4.3757-3.6001-7.9558-8-7.9558-4.3999 0-8 3.6796-8 8.0552 0 4.3757 3.6001 7.9558 8 7.9558 1.8 0 3.5-.5966 4.8999-1.6906L18.1001 19.5 19.5 18.0083Zm-10-2.4862c-3.3 0-6-2.6851-6-5.9669 0-3.2817 2.7-5.9668 6-5.9668s6 2.685 6 5.9668-2.7 5.9669-6 5.9669Z"/></g></svg>
