<svg xmlns="http://www.w3.org/2000/svg" width="24.0005" height="14" fill="none" viewBox="0 0 24.0005 14"><path fill="#83B3D3" fill-rule="evenodd" d="M23.45.948c.166-.5459 0-.948-.795-.948H20.03c-.6679 0-.976.347-1.143.73 0 0-1.335 3.196-3.226 5.272-.612.602-.89.793-1.224.793-.167 0-.418-.191-.418-.7381V.948c0-.656-.184-.948-.7399-.948H9.151c-.417 0-.668.304-.668.593 0 .6211.946.765 1.043 2.513v3.798c0 .833-.153.984-.487.984-.89 0-3.055-3.211-4.34-6.885C4.45.288 4.198 0 3.527 0H.9C.15 0 0 .347 0 .73c0 .682.89 4.07 4.145 8.551C6.315 12.3411 9.37 14 12.153 14c1.669 0 1.875-.3679 1.875-1.0029v-2.313c0-.737.158-.884.687-.884.39 0 1.057.1918 2.615 1.6669C19.11 13.2161 19.403 14 20.405 14h2.625c.75 0 1.126-.3679.9099-1.0959-.2379-.7242-1.0878-1.7752-2.2149-3.022-.612-.71-1.5301-1.4751-1.809-1.8582-.389-.491-.2779-.71 0-1.147 0 0 3.2-4.426 3.533-5.9289h.001Z"/></svg>
