<svg xmlns="http://www.w3.org/2000/svg" width="20" height="20" fill="none" viewBox="0 0 20 20"><defs><clipPath id="a"><path fill="#fff" fill-opacity="0" d="M0 0h20v20H0z"/></clipPath></defs><g clip-path="url(#a)"><path fill="#000" d="M9.8999 19c-.2998 0-.59985-.1-.7998-.4-5.40015-6.1-6.7002-7.5-7-7.9C1.3999 9.8 1 8.6 1 7.4 1 4.4 3.3999 2 6.5 2 7.80005 2 9 2.5 10 3.3c1-.8 2.3-1.3 3.5-1.3 3 0 5.5 2.4 5.5 5.4 0 1.3-.5 2.5-1.3 3.4l-7 7.9c-.2.2-.4.3-.8001.3Zm-6-9.5c.30005.4 3.5 4 6.1001 6.9l6.2-7c.5-.5.6999-1.2.6999-2 0-1.8-1.5-3.3-3.2998-3.3-1 0-2 .5-2.7002 1.3-.2998.3-.5999.4-.8999.4-.30005 0-.6001-.2-.80005-.4C8.5 4.6 7.5 4.1 6.5 4.1c-1.80005 0-3.30005 1.5-3.30005 3.3C3.1001 8.3 3.5 9 3.8999 9.5Z"/></g></svg>