<svg xmlns="http://www.w3.org/2000/svg" width="75" height="76" fill="none" viewBox="0 0 75 76"><path fill="none" d="M0 2h75v72H0z"/><path fill="#83B3D3" d="M67.1001 22.4624H42.3c13.8001-6.9048 14.9-11.3079 14.4-13.70947C55.5 4.75 51 1.74805 46.7 3.34912c-5.5999 2.10156-7.0999 10.40718-8.5999 16.41138-2-6.1043-3.8001-13.80957-8.2002-17.7124C28.6001.94751 26.8-.253418 24.1001.046875c-4 .400146-9.8001 5.403805-7.5 11.007525C18.8999 16.4583 26.3 19.8606 31.2 22.5625H8.8999C7.30005 22.5625 6 23.8635 6 25.4646v11.3079c0 1.601 1.30005 2.9021 2.8999 2.9021h.30005V76H67V39.5745h.1001C68.7 39.5745 70 38.2734 70 36.6724V25.3645c0-1.6011-1.3-2.9021-2.8999-2.9021ZM48.3999 5.85083c2.1001-.30029 5 1.30103 5.3001 3.20215.4001 2.80202-3.4 5.30372-5.0999 6.40452-2.5 1.7012-4.9001 2.6018-7.3001 4.103.9-3.7026 2.5-13.00923 7.0999-13.70967ZM25.5 15.8579c-2.2-1.5012-6.5-4.4031-6.3999-7.80541C19.2 4.44995 24.8 1.44775 27.8999 4.14966 31.8 7.552 33.6001 15.2573 35 20.7612c-3.2-1.5009-6.3-2.802-9.5-4.9033Zm6 57.1399H12.1001V39.5745H31.5v33.4233Zm0-36.5254H9V25.4646h22.5v11.0078Zm10.2 0V72.9978h-7.2V25.5647h7.2v10.9077ZM64 72.9978H44.6001V39.5745H64v33.4233Zm2.8999-36.5254H44.6001V25.4646h22.2998v11.0078Z"/></svg>