<svg xmlns="http://www.w3.org/2000/svg" width="76" height="72" fill="none" viewBox="0 0 76 72"><path fill="none" d="M0 0h75v72H0z"/><path fill="#83B3D3" fill-rule="evenodd" d="M73.8916 39.3 76 37.2l-9.9397-9.9V0H52.1044v13.6001L38.4498 0 1 37.2l2.1084 2.1 7.8314-7.8v37.6001H6.92371V72H71.0803v-2.8999h-5.1205V31.5l7.9318 7.8ZM63.0482 24.3999 55.1165 16.5V2.8999h7.9317v21.5Zm0 44.7002H13.8514V28.5L38.4498 4.1001 63.0482 28.5v40.6001Zm-32.229-42c0 4.2998 3.5142 7.6999 7.731 7.6999 4.3172 0 7.8313-3.5 7.8313-7.6999 0-4.3001-3.5141-7.7002-7.8313-7.7002-4.2168 0-7.731 3.4001-7.731 7.7002Zm7.8314-5c2.7109 0 5.0201 2.1999 5.0201 4.8999 0 2.7-2.2089 4.8999-5.0201 4.8999-2.7109 0-5.0201-2.1999-5.0201-4.8999 0-2.7 2.2089-4.8999 5.0201-4.8999ZM20.9799 41.2h-3.012v3.9001h3.012V41.2Zm5.9237 0h-3.012v3.9001h3.012V41.2ZM30.6185 65h16.0642V41.2H30.6185V65Zm22.3896-23.8H49.996v3.9001h3.0121V41.2Zm5.9237 0h-3.0121v3.9001h3.0121V41.2Zm-25.4016 2.9001h10.1405v18H33.5302v-18ZM20.9799 47.2h-3.012v3.9001h3.012V47.2Zm5.9237 0h-3.012v3.9001h3.012V47.2Zm26.1045 0H49.996v3.9001h3.0121V47.2Zm5.9237 0h-3.0121v3.9001h3.0121V47.2Z"/></svg>