<svg xmlns="http://www.w3.org/2000/svg" width="75" height="72" fill="none" viewBox="0 0 75 72"><path fill="none" d="M0 0h75v72H0z"/><path fill="#83B3D3" fill-rule="evenodd" d="M6.1084 32.5h63.8645c0-.6001.1002-1.2.1002-1.8999v-1.2002C69.3713 13.7 55.3362 1 38.093 1 20.7495 1 6.71436 13.7 6.01257 29.5v1.2729c-.00024.5757-.00036 1.1514.09583 1.7271ZM38.093 4c15.6392 0 28.4713 11.3 29.0729 25.5H9.02014C9.62158 15.3999 22.4537 4 38.093 4Zm-7.8196 9.2c1.0519 0 1.9047-.8953 1.9047-2 0-1.1045-.8528-2.00005-1.9047-2.00005-1.052 0-1.9047.89555-1.9047 2.00005 0 1.1047.8527 2 1.9047 2Zm17.4438-2c0 1.1047-.8529 2-1.9048 2-1.052 0-1.9048-.8953-1.9048-2 0-1.1045.8528-2.00005 1.9048-2.00005 1.0519 0 1.9048.89555 1.9048 2.00005Zm-7.7194 5.1c0 1.1045-.8528 2-1.9048 2s-1.9048-.8955-1.9048-2c0-1.1047.8528-2 1.9048-2s1.9048.8953 1.9048 2ZM22.0527 43.5l-5.4135-4.1001L11.3259 43.5l-6.21555-4.7 1.70423-2.5 4.51132 3.4 5.3133-4.0999L22.0527 39.7l5.3134-4.0999L32.6794 39.7l5.3133-4.0999L43.4062 39.7l5.3134-4.0999L54.033 39.7l5.4135-4.0999L64.7599 39.7l4.5112-3.4 1.7044 2.5-6.2156 4.7-5.3134-4.1001L54.033 43.5l-5.3134-4.1001L43.4062 43.5l-5.4135-4.1001L32.6794 43.5l-5.3133-4.1001L22.0527 43.5Zm49.023 4.2H5.11035C2.80457 47.7 1 49.6001 1 52v3.5c0 2.3999 1.90479 4.3 4.11035 4.3h.90222v1.0999c0 5.5 4.31083 10.1001 9.62413 10.1001h44.7121c5.3133 0 9.6241-4.5 9.6241-10.1001V59.8h.9022c2.3058 0 4.1104-1.9001 4.1104-4.3V52c.2005-2.3-1.7043-4.3-3.9098-4.3Zm1.203 7.8c0 .7-.6016 1.3-1.203 1.3H5.01001c-.70166 0-1.203-.6-1.203-1.3V52c0-.7.60156-1.3 1.203-1.3H70.9755c.7017 0 1.203.6 1.203 1.3.1002 0 .1002 3.5.1002 3.5Zm-5.1128 5.3999c0 3.9001-3.0076 7-6.7169 7H15.6367c-3.7093 0-6.7169-3.1999-6.7169-7V59.8h58.2461v1.0999Z"/></svg>