<svg xmlns="http://www.w3.org/2000/svg" width="115" height="33" fill="none" viewBox="0 0 115 33"><defs><clipPath id="a"><path fill="#fff" fill-opacity="0" d="M0 0h115v33H0z"/></clipPath></defs><path fill="none" d="M0 0h115v33H0z"/><g clip-path="url(#a)"><path fill="none" d="M0 0h114.900002v32.900002H0z"/><path fill="#000" fill-rule="evenodd" d="M11.6001 4.5C10 4.5 8.80005 5.19995 8 6.19995h-.1001V0h-2v15.5h2v-5.3c0-2.0999 1.30005-3.5999 3.3001-3.5999 1.8 0 2.9001 1.3999 2.9001 3.19995V15.5h2V9.3999c.0024-.07544.0037-.15039.0037-.22461 0-2.86987-1.8719-4.67529-4.5037-4.67529ZM47.8 12.7c0 1.6999 1 2.6999 2.8001 2.6999h2v-2h-1.7002C50.2 13.3999 49.8 13 49.8 12.3V0h-2v12.7ZM26.6001 4.80005H21.8V1.1001h-2v3.7998h-1.9001v2H19.8v6c0 1.7002 1 2.7002 2.7 2.7002h4.1001v-2h-3.7002C22.2 13.6001 21.8 13.2 21.8 12.5V6.80005h4.8001v-2Zm14.5-.19995c-1.6001 0-2.9001.7998-3.5 2.09985H37.5C36.8999 5.5 35.7 4.6001 34.1001 4.6001c-1.4001 0-2.5.7998-3.1001 1.7998h-.1001V4.80005H29V15.3999h2V10c0-2 1-3.5 2.6001-3.5 1.5 0 2.3999 1 2.3999 2.6001v6.2998h2V9.80005C38 7.3999 39.3999 6.5 40.6001 6.5c1.5 0 2.3999 1 2.3999 2.6001v6.2998h2v-6.5c.0032-.07837.0046-.15649.0046-.23364 0-2.37769-1.4831-4.06616-3.9045-4.06616ZM0 12.8999V15.5h2.5v-2.6001H0ZM68.7 19.8c-.9-1.1-2.2-1.9001-3.9-1.9001-3.1 0-5.4001 2.3001-5.4001 5.6001 0 3.3 2.2002 5.6001 5.4001 5.6001 1.7 0 3-.8001 3.8001-1.8001H68.7v1.5h2V13.3999h-2V19.8Zm-39.8001-.1C28 18.6001 26.7 17.8999 25 17.8999c-3.1001 0-5.3999 2.3001-5.3999 5.6001 0 3.3 2.2998 5.6001 5.3999 5.6001 1.8 0 3-.8001 3.8-1.9001h.0999v1.6h2V18.2h-2v1.5ZM44.2 22c-.5-2.3999-2.5999-4.1001-5.4-4.1001-3.4001 0-5.6 2.5-5.6 5.6001 0 3.1001 2.1999 5.6001 5.6 5.6001 2.8001 0 4.9-1.8001 5.4-4.2002h-2.0999C41.7 26.2 40.3999 27.2 38.8 27.2c-2.1999 0-3.6-1.5999-3.6-3.5999 0-2 1.4001-3.6001 3.6-3.6001 1.5999 0 2.8001 1 3.3001 2.2H44.2V22Zm10.9001-2.3c-.9001-1.0999-2.2002-1.8001-3.9001-1.8001-3.0999 0-5.4 2.3001-5.4 5.6001 0 3.3 2.3001 5.6001 5.4 5.6001 1.8 0 3-.8001 3.8-1.9001h.1001v1.6h2V18.2h-2v1.5ZM78.3 17.8999c-3.3 0-5.5 2.5-5.5 5.6001 0 3 2.0999 5.6001 5.5 5.6001 2.5 0 4.5-1.3001 5.2-3.6001h-2.1001c-.5 1-1.5999 1.6001-3 1.6001C76.5 27.1001 75.1001 25.8 75 24.2h8.8c.0083-.1514.0125-.3013.0125-.4495 0-3.3728-2.1597-5.8506-5.5125-5.8506Zm19.9 0c-1.5999 0-2.9.8001-3.5999 2H94.5c-.6001-1.1999-1.8-2-3.3999-2-1.4001 0-2.5.7002-3.1001 1.8001v-1.5h-1.8999v10.6h2v-5.4001c0-2 1-3.3999 2.5999-3.5 1.5 0 2.4001 1 2.4001 2.6001v6.3h2v-5.6c0-2.4 1.3999-3.3001 2.5999-3.3001 1.5 0 2.4 1 2.4 2.6001v6.3h2v-6.5c.003-.0817.005-.1628.005-.2429 0-2.4685-1.484-4.1572-3.905-4.1572ZM109.4 27l-3.6-8.8999h-2.2L108.4 29.7c-.3.9001-.7 1.1999-1.7 1.1999h-2.5v2h2.5c1.8 0 2.8-.7998 3.5-2.5999l4.7-12.1999h-2.1L109.4 27Zm-31.1-7.2c1.7 0 3 1 3.3001 2.5999h-6.5c.2998-1.5 1.5-2.5999 3.1999-2.5999Zm-53 7.3001c-2.1999 0-3.6-1.6001-3.6-3.6001 0-2 1.4001-3.6001 3.6-3.6001 2.2 0 3.5999 1.6001 3.5999 3.6001 0 1.8999-1.3999 3.6001-3.5999 3.6001Zm26.2 0c-2.2 0-3.6001-1.6001-3.6001-3.6001 0-2 1.4001-3.6001 3.6001-3.6001S55.1001 21.5 55.1001 23.5c0 1.8999-1.5 3.6001-3.6001 3.6001Zm13.6001 0C62.8999 27.1001 61.5 25.5 61.5 23.5c0-2 1.3999-3.6001 3.6001-3.6001C67.3 19.8999 68.7 21.5 68.7 23.5c-.0999 2-1.5 3.6001-3.5999 3.6001Z"/></g></svg>